<?xml version="1.0" encoding="UTF-8" standalone="no"?>
<!-- Generator: Adobe Illustrator 25.2.3, SVG Export Plug-In . SVG Version: 6.00 Build 0)  -->

<svg
   version="1.0"
   id="svg56722"
   sodipodi:docname="CKSS_0.svg"
   x="0px"
   y="0px"
   width="20.641109"
   height="14"
   viewBox="0 0 20.641109 14"
   enable-background="new 0 0 14 20.64111"
   xml:space="preserve"
   inkscape:version="1.4 (86a8ad7, 2024-10-11)"
   xmlns:inkscape="http://www.inkscape.org/namespaces/inkscape"
   xmlns:sodipodi="http://sodipodi.sourceforge.net/DTD/sodipodi-0.dtd"
   xmlns="http://www.w3.org/2000/svg"
   xmlns:svg="http://www.w3.org/2000/svg"><defs
   id="defs4" />
<sodipodi:namedview
   bordercolor="#666666"
   borderopacity="1.0"
   fit-margin-bottom="0"
   fit-margin-left="0"
   fit-margin-right="0"
   fit-margin-top="0"
   id="base"
   inkscape:current-layer="svg56722"
   inkscape:cx="6.6741071"
   inkscape:cy="2.4330357"
   inkscape:document-units="mm"
   inkscape:pageopacity="0.0"
   inkscape:pageshadow="2"
   inkscape:window-height="1051"
   inkscape:window-maximized="1"
   inkscape:window-width="1920"
   inkscape:window-x="-9"
   inkscape:window-y="-9"
   inkscape:zoom="22.4"
   pagecolor="#ffffff"
   showgrid="false"
   units="px"
   inkscape:showpageshadow="0"
   inkscape:pagecheckerboard="0"
   inkscape:deskcolor="#505050">
	</sodipodi:namedview>




<path
   id="path5785"
   inkscape:connector-curvature="0"
   d="M 0,1.47508 C 0,0.66465 0.66471,0 1.47514,0 h 11.04979 c 0.81036,0 1.47514,0.66477 1.47514,1.47508 v 17.69189 c 0,0.81043 -0.66471,1.47406 -1.47514,1.47406 H 1.47514 C 0.66477,20.64102 0,19.97739 0,19.16696 Z"
   style="display:inline"
   transform="rotate(90,10.317968,10.325036)" /><g
   id="g5795"
   opacity="0.54"
   transform="rotate(90,10.317968,10.325036)">
	<g
   id="g5797">
		<linearGradient
   id="path5805_1_"
   gradientUnits="userSpaceOnUse"
   x1="6.9992099"
   y1="1.33285"
   x2="6.9992099"
   y2="19.459539">
			<stop
   offset="0"
   style="stop-color:#3B3B3B"
   id="stop1" />
			<stop
   offset="1"
   style="stop-color:#242424"
   id="stop2" />
		</linearGradient>
		<path
   id="path5805"
   inkscape:connector-curvature="0"
   fill="url(#path5805_1_)"
   d="m 2.19312,1.33285 c -0.48687,0 -0.88421,0.39734 -0.88421,0.88421 v 0 16.35726 c 0,0.48687 0.3974,0.88522 0.88421,0.88522 v 0 h 9.6132 c 0.48477,0 0.88319,-0.39849 0.88319,-0.88522 v 0 -16.35726 c 0,-0.48687 -0.39842,-0.88421 -0.88319,-0.88421 v 0 z"
   style="fill:url(#path5805_1_)" />
	</g>
</g><rect
   x="1.30993"
   y="18.584249"
   fill="none"
   width="0.68290001"
   height="0.89523"
   id="rect2"
   transform="rotate(90,10.317968,10.325036)" /><rect
   x="0.99908"
   y="0.81461"
   opacity="0.3"
   width="12.00026"
   height="1.71664"
   id="rect3"
   transform="rotate(90,10.317968,10.325036)" /><g
   id="g4"
   style="display:inline"
   transform="rotate(90,10.317968,10.325036)">
	<linearGradient
   id="path5815_2_"
   gradientUnits="userSpaceOnUse"
   x1="6.9992099"
   y1="10.61302"
   x2="6.9992099"
   y2="19.459539">
		<stop
   offset="0.00559"
   style="stop-color:#3D3B3B"
   id="stop3" />
		<stop
   offset="1"
   style="stop-color:#2D2C2C"
   id="stop4" />
	</linearGradient>
	<path
   id="path5815_1_"
   inkscape:connector-curvature="0"
   fill="url(#path5815_2_)"
   d="M 1.30891,10.61302 H 12.6895 v 8.84652 H 1.30891 Z"
   style="fill:url(#path5815_2_)" />
	<path
   id="path5817_1_"
   inkscape:connector-curvature="0"
   fill="#5e5e5e"
   d="M 1.30891,14.15995 H 12.6895 v 0.87738 H 1.30891 Z" />
	<path
   id="path5819_1_"
   inkscape:connector-curvature="0"
   fill="#5e5e5e"
   d="M 1.30891,17.70687 H 12.6895 v 0.87738 H 1.30891 Z" />
	<path
   id="path5821_1_"
   inkscape:connector-curvature="0"
   fill="#5e5e5e"
   d="M 1.30891,15.93427 H 12.6895 v 0.87738 H 1.30891 Z" />
	<path
   id="path5823_1_"
   inkscape:connector-curvature="0"
   fill="#5e5e5e"
   d="M 1.30891,12.38654 H 12.6895 v 0.87738 H 1.30891 Z" />
	<path
   id="path5825_1_"
   inkscape:connector-curvature="0"
   fill="#797979"
   d="M 1.30891,10.61302 H 12.6895 V 11.4904 H 1.30891 Z" />
</g>
</svg>
